<svg width="20" height="24" viewBox="0 0 20 24" fill="none" xmlns="http://www.w3.org/2000/svg">
<g opacity="0.3">
<path d="M9.95333 21.286H8.98133L8.71133 19H1.94333L1.67333 21.286H0.701328V17.74H1.76333C1.85933 17.608 1.98533 17.374 2.14133 17.038C2.29733 16.69 2.44733 16.21 2.59133 15.598C2.74733 14.974 2.87933 14.206 2.98733 13.294C3.10733 12.37 3.17933 11.272 3.20333 10H8.63933V17.74H9.95333V21.286ZM7.19933 17.74V11.26H4.49933C4.47533 11.764 4.43333 12.316 4.37333 12.916C4.31333 13.504 4.22933 14.098 4.12133 14.698C4.02533 15.286 3.89933 15.844 3.74333 16.372C3.58733 16.9 3.40733 17.356 3.20333 17.74H7.19933ZM11.2316 14.5C11.2316 12.976 11.5676 11.812 12.2396 11.008C12.9236 10.192 13.9016 9.784 15.1736 9.784C15.8456 9.784 16.4276 9.898 16.9196 10.126C17.4236 10.342 17.8376 10.66 18.1616 11.08C18.4856 11.488 18.7256 11.986 18.8816 12.574C19.0376 13.15 19.1156 13.792 19.1156 14.5C19.1156 16.024 18.7736 17.194 18.0896 18.01C17.4176 18.814 16.4456 19.216 15.1736 19.216C14.5016 19.216 13.9136 19.108 13.4096 18.892C12.9176 18.664 12.5096 18.346 12.1856 17.938C11.8616 17.518 11.6216 17.02 11.4656 16.444C11.3096 15.856 11.2316 15.208 11.2316 14.5ZM12.7256 14.5C12.7256 14.956 12.7676 15.394 12.8516 15.814C12.9476 16.234 13.0916 16.6 13.2836 16.912C13.4756 17.224 13.7276 17.476 14.0396 17.668C14.3516 17.86 14.7296 17.956 15.1736 17.956C16.8056 17.968 17.6216 16.816 17.6216 14.5C17.6216 14.032 17.5736 13.588 17.4776 13.168C17.3936 12.748 17.2556 12.382 17.0636 12.07C16.8716 11.758 16.6196 11.512 16.3076 11.332C15.9956 11.14 15.6176 11.044 15.1736 11.044C13.5416 11.032 12.7256 12.184 12.7256 14.5Z" fill="black"/>
</g>
</svg>
